<svg width="14" height="16" viewBox="0 0 14 16" fill="none" xmlns="http://www.w3.org/2000/svg">
<path d="M1.82841 8.48524L7.48526 2.82839C8.65683 1.65681 10.5563 1.65681 11.7279 2.82839C12.8995 3.99996 12.8995 5.89945 11.7279 7.07103L5.01039 13.7885C4.4246 14.3743 3.47485 14.3743 2.88907 13.7885C2.30328 13.2028 2.30328 12.253 2.88907 11.6672L8.89948 5.65681C9.09474 5.46155 9.09474 5.14497 8.89948 4.94971C8.70421 4.75444 8.38763 4.75444 8.19237 4.94971L2.18196 10.9601C1.20565 11.9364 1.20565 13.5193 2.18196 14.4956C3.15827 15.472 4.74118 15.472 5.71749 14.4956L12.435 7.77813C13.9971 6.21604 13.9971 3.68338 12.435 2.12128C10.8729 0.559183 8.34025 0.559183 6.77815 2.12128L1.1213 7.77813C0.926038 7.9734 0.926038 8.28998 1.1213 8.48524C1.31656 8.6805 1.63315 8.6805 1.82841 8.48524Z" fill="#605E5C"/>
</svg>
