<svg width="41" height="42" viewBox="0 0 41 42" fill="none" xmlns="http://www.w3.org/2000/svg">
<path d="M40.7799 19.68C40.4199 12.36 35.9799 5.52001 29.3799 2.40001C22.1799 -0.839988 13.4199 0.480013 7.41988 5.52001C1.65988 10.32 -0.980116 18.12 0.699884 25.44C2.25988 32.64 7.89988 38.52 14.9799 40.44C23.4999 42.84 31.2999 38.76 36.0999 31.8C31.7799 37.56 25.1799 41.4 17.8599 40.08C10.5399 38.76 4.53988 33.24 2.85988 26.04C1.05988 18.36 4.65988 10.32 11.4999 6.36001C18.5799 2.28001 28.5399 3.84001 33.2199 10.8C34.4199 12.48 35.2599 14.52 35.6199 16.56C35.9799 18.24 35.8599 20.04 36.0999 21.72C36.3399 23.28 37.6599 25.32 39.4599 24.24C41.0199 23.28 40.8999 21.24 40.7799 19.68C40.8999 20.52 40.7799 19.2 40.7799 19.68Z" fill="black"/>
</svg>
